<svg width="13" height="13" viewBox="0 0 13 13" fill="none" xmlns="http://www.w3.org/2000/svg">
<path d="M12.9999 1.0557C12.9999 0.472632 12.5272 -3.59413e-05 11.9442 -3.62083e-05L2.44258 -3.60748e-05C1.85951 -3.64307e-05 1.38684 0.472632 1.38684 1.0557C1.38684 1.63876 1.85951 2.11143 2.44258 2.11143L10.8884 2.11143L10.8884 10.5573C10.8884 11.1404 11.3611 11.613 11.9442 11.613C12.5272 11.613 12.9999 11.1404 12.9999 10.5573L12.9999 1.0557ZM0.746436 12.2534L1.49295 13L12.6907 1.80221L11.9442 1.0557L11.1977 0.309181L-7.97909e-05 11.5069L0.746436 12.2534Z" fill="white"/>
</svg>
