<svg width="51" height="50" viewBox="0 0 51 50" fill="none" xmlns="http://www.w3.org/2000/svg">
<path d="M23.4474 0.410156C24.4044 -0.136719 25.586 -0.136719 26.5528 0.410156L43.3302 9.99023L43.7501 10.1562V10.2441L48.4278 12.9199C49.6583 13.623 50.2638 15.0684 49.9024 16.4355C49.5411 17.8027 48.3009 18.7598 46.8849 18.7598L3.1251 18.75C1.70909 18.75 0.468852 17.793 0.107524 16.4258C-0.253804 15.0586 0.351665 13.6133 1.58213 12.9102L6.2501 10.2441V10.1562L6.67979 10L23.4474 0.410156ZM6.2501 21.875H12.5001V40.625H16.4064V21.875H22.6564V40.625H27.3439V21.875H33.5939V40.625H37.5001V21.875H43.7501V41.0449C43.8087 41.0742 43.8673 41.1133 43.9259 41.1523L48.6134 44.2773C49.756 45.0391 50.2735 46.4648 49.8731 47.7832C49.4728 49.1016 48.2521 50 46.8751 50H3.1251C1.74815 50 0.537212 49.1016 0.136821 47.7832C-0.26357 46.4648 0.244243 45.0391 1.39659 44.2773L6.08409 41.1523C6.14268 41.1133 6.20127 41.084 6.25987 41.0449L6.2501 21.875Z" fill="white"/>
</svg>
