<svg width="50" height="50" viewBox="0 0 50 50" fill="none" xmlns="http://www.w3.org/2000/svg">
<path d="M37.4998 27.0793H27.0832V37.4959C27.0832 38.0485 26.8637 38.5784 26.473 38.9691C26.0823 39.3598 25.5524 39.5793 24.9998 39.5793C24.4473 39.5793 23.9174 39.3598 23.5267 38.9691C23.136 38.5784 22.9165 38.0485 22.9165 37.4959V27.0793H12.4998C11.9473 27.0793 11.4174 26.8598 11.0267 26.4691C10.636 26.0784 10.4165 25.5485 10.4165 24.9959C10.4165 24.4434 10.636 23.9135 11.0267 23.5228C11.4174 23.1321 11.9473 22.9126 12.4998 22.9126H22.9165V12.4959C22.9165 11.9434 23.136 11.4135 23.5267 11.0228C23.9174 10.6321 24.4473 10.4126 24.9998 10.4126C25.5524 10.4126 26.0823 10.6321 26.473 11.0228C26.8637 11.4135 27.0832 11.9434 27.0832 12.4959V22.9126H37.4998C38.0524 22.9126 38.5823 23.1321 38.973 23.5228C39.3637 23.9135 39.5832 24.4434 39.5832 24.9959C39.5832 25.5485 39.3637 26.0784 38.973 26.4691C38.5823 26.8598 38.0524 27.0793 37.4998 27.0793Z" fill="black"/>
</svg>
