<svg width="16" height="16" viewBox="0 0 16 16" fill="none" xmlns="http://www.w3.org/2000/svg">
<path d="M6.66699 2.66675L9.33366 13.3334M8.00033 8.00008L2.66699 9.33341M2.66699 4.00008C2.66699 3.64646 2.80747 3.30732 3.05752 3.05727C3.30756 2.80722 3.6467 2.66675 4.00033 2.66675H12.0003C12.3539 2.66675 12.6931 2.80722 12.9431 3.05727C13.1932 3.30732 13.3337 3.64646 13.3337 4.00008V12.0001C13.3337 12.3537 13.1932 12.6928 12.9431 12.9429C12.6931 13.1929 12.3539 13.3334 12.0003 13.3334H4.00033C3.6467 13.3334 3.30756 13.1929 3.05752 12.9429C2.80747 12.6928 2.66699 12.3537 2.66699 12.0001V4.00008Z" stroke="#FFA500" stroke-width="1.25" stroke-linecap="round" stroke-linejoin="round"/>
</svg>
