<svg width="50" height="50" viewBox="0 0 50 50" fill="none" xmlns="http://www.w3.org/2000/svg">
<path d="M6.25009 43.75C5.65981 43.75 5.16537 43.55 4.76676 43.15C4.36814 42.75 4.16814 42.2556 4.16676 41.6667C4.16537 41.0778 4.36537 40.5834 4.76676 40.1834C5.16814 39.7834 5.66259 39.5834 6.25009 39.5834H22.9168V16.3021C22.014 15.9896 21.2327 15.5035 20.573 14.8438C19.9133 14.1841 19.4272 13.4028 19.1147 12.5H12.5001L18.2293 25.9375C18.4029 26.3195 18.507 26.7104 18.5418 27.1104C18.5765 27.5104 18.5591 27.9181 18.4897 28.3334C18.1772 29.9306 17.3181 31.1632 15.9126 32.0313C14.507 32.8993 13.0223 33.3334 11.4584 33.3334C9.89453 33.3334 8.4105 32.8993 7.00634 32.0313C5.60217 31.1632 4.74245 29.9306 4.42717 28.3334C4.35773 27.9167 4.34037 27.5091 4.37509 27.1104C4.40981 26.7118 4.51398 26.3209 4.68759 25.9375L10.4168 12.5H8.33342C7.74314 12.5 7.2487 12.3007 6.85009 11.9021C6.45148 11.5035 6.25148 11.0084 6.25009 10.4167C6.2487 9.82502 6.4487 9.33058 6.85009 8.93336C7.25148 8.53614 7.74592 8.33614 8.33342 8.33336H19.1147C19.5313 7.11808 20.2779 6.12016 21.3543 5.33961C22.4306 4.55905 23.6459 4.16808 25.0001 4.16669C26.3543 4.1653 27.5695 4.55627 28.6459 5.33961C29.7223 6.12294 30.4688 7.12086 30.8855 8.33336H41.6668C42.257 8.33336 42.7522 8.53336 43.1522 8.93336C43.5522 9.33336 43.7515 9.8278 43.7501 10.4167C43.7487 11.0056 43.5487 11.5007 43.1501 11.9021C42.7515 12.3035 42.257 12.5028 41.6668 12.5H39.5834L45.3126 25.9375C45.4862 26.3195 45.5904 26.7104 45.6251 27.1104C45.6598 27.5104 45.6424 27.9181 45.573 28.3334C45.2605 29.9306 44.4015 31.1632 42.9959 32.0313C41.5904 32.8993 40.1056 33.3334 38.5418 33.3334C36.9779 33.3334 35.4938 32.8993 34.0897 32.0313C32.6855 31.1632 31.8258 29.9306 31.5105 28.3334C31.4411 27.9167 31.4237 27.5091 31.4584 27.1104C31.4931 26.7118 31.5973 26.3209 31.7709 25.9375L37.5001 12.5H30.8855C30.573 13.4028 30.0869 14.1841 29.4272 14.8438C28.7675 15.5035 27.9862 15.9896 27.0834 16.3021V39.5834H43.7501C44.3404 39.5834 44.8355 39.7834 45.2355 40.1834C45.6355 40.5834 45.8348 41.0778 45.8334 41.6667C45.832 42.2556 45.632 42.7507 45.2334 43.1521C44.8348 43.5535 44.3404 43.7528 43.7501 43.75H6.25009ZM34.6355 27.0834H42.448L38.5418 18.0209L34.6355 27.0834ZM7.55217 27.0834H15.3647L11.4584 18.0209L7.55217 27.0834ZM25.0001 12.5C25.5904 12.5 26.0855 12.3 26.4855 11.9C26.8855 11.5 27.0848 11.0056 27.0834 10.4167C27.082 9.8278 26.882 9.33336 26.4834 8.93336C26.0848 8.53336 25.5904 8.33336 25.0001 8.33336C24.4098 8.33336 23.9154 8.53336 23.5168 8.93336C23.1181 9.33336 22.9181 9.8278 22.9168 10.4167C22.9154 11.0056 23.1154 11.5007 23.5168 11.9021C23.9181 12.3035 24.4126 12.5028 25.0001 12.5Z" fill="white"/>
</svg>
