<svg width="50" height="57" viewBox="0 0 50 57" fill="none" xmlns="http://www.w3.org/2000/svg">
<path d="M10.7143 14.25C10.7143 18.0293 12.2194 21.6539 14.8985 24.3263C17.5776 26.9987 21.2112 28.5 25 28.5C28.7888 28.5 32.4224 26.9987 35.1015 24.3263C37.7806 21.6539 39.2857 18.0293 39.2857 14.25C39.2857 10.4707 37.7806 6.84612 35.1015 4.17373C32.4224 1.50134 28.7888 0 25 0C21.2112 0 17.5776 1.50134 14.8985 4.17373C12.2194 6.84612 10.7143 10.4707 10.7143 14.25ZM21.2612 36.5379L23.3371 39.9891L19.6205 53.7826L15.6027 37.4285C15.3795 36.5268 14.5089 35.9367 13.6049 36.1705C5.79241 38.1187 0 45.177 0 53.5822C0 55.4748 1.54018 57 3.42634 57H46.5737C48.471 57 50 55.4637 50 53.5822C50 45.177 44.2076 38.1187 36.3951 36.1705C35.4911 35.9478 34.6205 36.5379 34.3973 37.4285L30.3795 53.7826L26.6629 39.9891L28.7388 36.5379C29.4531 35.3467 28.5938 33.8438 27.2098 33.8438H22.8013C21.4174 33.8438 20.558 35.3578 21.2723 36.5379H21.2612Z" fill="white"/>
</svg>
